<svg xmlns="http://www.w3.org/2000/svg" width="128" height="128" viewBox="0 0 128 128"><defs><linearGradient id="g" x2="0" y2="1"><stop stop-color="#fff1ce"/><stop offset="1" stop-color="#c99849"/></linearGradient></defs><path d="M28 58C17 13 109 13 100 58L94 81 83 84 80 106 48 106 45 84 34 81Z" fill="url(#g)" stroke="#9e7032" stroke-width="4"/><path d="M39 52Q51 48 57 66L42 70ZM89 52Q77 48 71 66L86 70ZM64 68 55 82 73 82Z" fill="#10283d"/><path d="M55 88v17m18-17v17M36 32 19 18 24 50m68-18 17-14-5 32" fill="none" stroke="#f3c569" stroke-width="5" stroke-linejoin="round"/></svg>
