<svg xmlns="http://www.w3.org/2000/svg" width="256" height="128" viewBox="0 0 256 128"><defs><linearGradient id="gold" x2="0" y2="1"><stop stop-color="#fff6c5"/><stop offset=".18" stop-color="#efc568"/><stop offset=".4" stop-color="#936023"/><stop offset=".53" stop-color="#ffeab0"/><stop offset=".72" stop-color="#b47b30"/><stop offset="1" stop-color="#5b381c"/></linearGradient><linearGradient id="navy" x2=".2" y2="1"><stop stop-color="#29475a"/><stop offset=".42" stop-color="#112b40"/><stop offset="1" stop-color="#081a2c"/></linearGradient><linearGradient id="amber" x2="0" y2="1"><stop stop-color="#fff1a3"/><stop offset=".38" stop-color="#f9d35e"/><stop offset=".7" stop-color="#e3a72f"/><stop offset="1" stop-color="#b17624"/></linearGradient><pattern id="grain" width="28" height="28" patternUnits="userSpaceOnUse"><path d="m0 3 28 24M-10 9 15 33M5-8 34 17M0 23 19 4M17 31 31 17" stroke="#b8c4c7" stroke-opacity=".055" stroke-width=".7"/></pattern></defs><path d="M25 7H231L253 64 231 118H25L3 64Z" fill="#071624" stroke="#52321a" stroke-width="6"/><path d="M27 6H229L250 63 229 116H27L6 63Z" fill="url(#gold)"/><path d="M30 14H226L243 63 226 108H30L13 63Z" fill="url(#navy)" stroke="#fbe3a1" stroke-width="1.4"/><path d="M32 20H224M32 102H224" stroke="#bd9251" stroke-width="1"/><path d="M14 45 30 63 14 80M242 45 226 63 242 80" fill="none" stroke="url(#gold)" stroke-width="4"/><path d="m18 63 7-9 7 9-7 9Z m206 0 7-9 7 9-7 9Z" fill="url(#gold)"/></svg>
